<svg xmlns="http://www.w3.org/2000/svg" viewBox="0 0 225.11 88.99"><defs><style>.a{fill:#00aeef}</style></defs><title>turku-logo-filled-blue</title><path class="a" d="M221.35 63.48q-3.76 3.29-10.41 3.28c-4.5 0-8-1.08-10.44-3.25s-3.69-5.52-3.69-10V32.83h7.3v20.64a14.59 14.59 0 0 0 .23 2.65 5.1 5.1 0 0 0 3 3.92 8.38 8.38 0 0 0 3.56.63q3.9 0 5.39-1.74t1.49-5.46V32.83h7.29v20.64q0 6.74-3.76 10m-50.17-30.64v13.76l13-13.76h9.11l-13 13.11L194.47 66h-9.16l-10-14.92-4.18 4.23V66h-7.3V32.83zM146 47.84a5.52 5.52 0 0 0 3.76-1.11A4.63 4.63 0 0 0 151 43.1a4.42 4.42 0 0 0-1.26-3.51A5.62 5.62 0 0 0 146 38.5h-8v9.34zm2.6-15a10.67 10.67 0 0 1 4 .72 9.23 9.23 0 0 1 3.07 2 8.53 8.53 0 0 1 1.95 2.9 9.32 9.32 0 0 1 .68 3.54 10 10 0 0 1-1.23 5.06 7.75 7.75 0 0 1-4 3.26v.09a5.67 5.67 0 0 1 2.23 1.14 6.19 6.19 0 0 1 1.44 1.81 8.16 8.16 0 0 1 .82 2.3 21.63 21.63 0 0 1 .35 2.51q0 .8.09 1.86c0 .71.08 1.44.16 2.19a15.2 15.2 0 0 0 .37 2.11 5 5 0 0 0 .77 1.7H152a12.92 12.92 0 0 1-.74-3.77c-.09-1.45-.23-2.85-.42-4.18a6.54 6.54 0 0 0-1.58-3.81 5.4 5.4 0 0 0-4-1.21H138V66h-7.3V32.83zm-27.4 30.64q-3.77 3.29-10.42 3.28t-10.43-3.25q-3.69-3.25-3.7-10V32.83H104v20.64a15.54 15.54 0 0 0 .23 2.65 5.14 5.14 0 0 0 3 3.92 8.36 8.36 0 0 0 3.55.63c2.61 0 4.4-.58 5.4-1.74s1.48-3 1.48-5.46V32.83H125v20.64q0 6.74-3.76 10M65.79 39v-6.17H93V39H83v27h-7.3V39zM50.62 56.35c-.3.44-1.11 1.33-1.29 1.55-.57.7-.43 1.09-.3 1.24.33.39.87.06.87.06a.76.76 0 0 1-.44.46.88.88 0 0 1-1.08-.25c-.4-.41-.12-1 0-1.27s.34-.57.44-.74a1.28 1.28 0 0 0-.24-1.5c-.55-.49-1.16-.09-1.46.39a6.65 6.65 0 0 0-.64 1.71h-.27s.13-.59.24-1a11.69 11.69 0 0 1 .61-1.74 3.17 3.17 0 0 1 1.76-1.65 1.51 1.51 0 0 1 1.81.56 2.15 2.15 0 0 1 0 2.33M50 61.81a2.12 2.12 0 0 1-.06.26.45.45 0 0 0-.43-.27c-.3.05-.54.53-.64.66s-.46.6-.83.6a1.25 1.25 0 0 1-.94-.56 3.44 3.44 0 0 1-.69-1.27 3 3 0 0 1-.06-.79l.27-.07a1.82 1.82 0 0 0 .67 1.37 1.08 1.08 0 0 0 1.41 0c.09-.07.65-.55 1.06-.39a.36.36 0 0 1 .24.41m-3.62 1.71a6.69 6.69 0 0 1-.62.87 6.69 6.69 0 0 1-.62-.87 3.84 3.84 0 0 1-.34-.89 3.1 3.1 0 0 0 .52-.79 2.75 2.75 0 0 0 .23-1.37H46a2.88 2.88 0 0 0 .23 1.37 3.29 3.29 0 0 0 .53.79 4.44 4.44 0 0 1-.34.89m-1.89 8.94a2.49 2.49 0 0 1-3.12-.59 1.57 1.57 0 0 1-1.52.33 1.7 1.7 0 0 1-1-.63 1.94 1.94 0 0 1-.2-.34s1.05 0 1.26-.5c.12-.28.1-.69-.93-1.35-.33-.21-1.9-1.09-2.55-1.53s-1.57-1.13-1.15-2a2 2 0 0 1 1-.93L33.76 55l-3.18 5.22L27.4 55l-2.62 10a2 2 0 0 1 1 .93c.43.84-.47 1.51-1.14 2s-2.23 1.32-2.56 1.53c-1 .66-1 1.07-.92 1.35.21.52 1.26.5 1.26.5a1.94 1.94 0 0 1-.2.34 1.7 1.7 0 0 1-1 .63 1.57 1.57 0 0 1-1.52-.33 2.5 2.5 0 0 1-3.12.59A4.85 4.85 0 0 1 15 70.28s.08.22 1.16.49 1.53-.93 1.63-1.21c.42-1.22 1.24-1.34 1.94-1.59s2.77-.82 3.13-.92c1.09-.31 1-.63.88-.8s-1 0-1.49.21a4.2 4.2 0 0 1-1.77.3c-.79-.09-.9-1-.7-1.63S25 50.57 25 50.57h-1.4s-.52-2.1-.85-3c-.85-2.23-1.65-3.06-1.92-3.24-1.31-.85-1.7 0-1.78.24a1.16 1.16 0 0 0 .24 1.24 1.65 1.65 0 0 1-.46.1 1.33 1.33 0 0 1-1-.48 1.47 1.47 0 0 1-.06-1.73 1.91 1.91 0 0 1-1.36-1.46c-.5-1.62 1.24-2.8 1.24-2.8s-.08.11.05.9 1.48 1.12 2.13 1.28a6.62 6.62 0 0 1 3.23 2.22 10.76 10.76 0 0 1 1.4 3h12.23a10.76 10.76 0 0 1 1.4-3 6.62 6.62 0 0 1 3.23-2.22c.64-.16 2-.5 2.13-1.28s0-.9 0-.9 1.74 1.18 1.24 2.8a1.91 1.91 0 0 1-1.36 1.46 1.46 1.46 0 0 1-.07 1.73 1.29 1.29 0 0 1-1 .48 1.65 1.65 0 0 1-.46-.1 1.16 1.16 0 0 0 .24-1.24c-.08-.24-.47-1.09-1.78-.24a7.24 7.24 0 0 0-1.92 3.24c-.33.88-.85 3-.85 3h-1.34s5.08 14.05 5.24 14.56.1 1.54-.69 1.63a4.2 4.2 0 0 1-1.77-.3c-.52-.17-1.3-.52-1.5-.21s-.2.49.89.8c.36.1 2.43.67 3.13.92s1.52.37 1.94 1.59c.1.28.47 1.5 1.63 1.21s1.16-.49 1.16-.49a4.85 4.85 0 0 1-1.66 2.18m-12.74-1a8.91 8.91 0 0 0 .23-1 7.16 7.16 0 0 0 .07-1 1.44 1.44 0 0 1 .53-.36 1.72 1.72 0 0 1 .75-.14s-.08.28-.15.59-.11.69-.11.69a2.51 2.51 0 0 0-.66.43 6.59 6.59 0 0 0-.66.78m3.63 2c-.3.44-1.11 1.32-1.3 1.55-.56.69-.42 1.08-.29 1.24.33.39.87.06.87.06a.76.76 0 0 1-.44.46.89.89 0 0 1-1.08-.25c-.4-.41-.12-1 0-1.27s.34-.57.44-.74a1.27 1.27 0 0 0-.24-1.5c-.55-.5-1.16-.09-1.46.39a6.65 6.65 0 0 0-.67 1.66h-.13L31 75s.13-.59.24-1a11.69 11.69 0 0 1 .61-1.74 3.13 3.13 0 0 1 1.76-1.65 1.49 1.49 0 0 1 1.81.56 2.15 2.15 0 0 1 0 2.33m-.6 5.5a1.12 1.12 0 0 1-.06.25.45.45 0 0 0-.43-.26c-.31.05-.54.53-.64.66s-.46.6-.83.6a1.25 1.25 0 0 1-.94-.56 3.51 3.51 0 0 1-.69-1.28 2.89 2.89 0 0 1-.06-.78l.27-.07a1.82 1.82 0 0 0 .67 1.37 1.08 1.08 0 0 0 1.41 0c.09-.07.65-.56 1.06-.39a.36.36 0 0 1 .24.41m-3.62 1.7a6 6 0 0 1-.62.87 6 6 0 0 1-.62-.87 3.67 3.67 0 0 1-.34-.88 3.1 3.1 0 0 0 .52-.79 2.78 2.78 0 0 0 .23-1.38h.42A2.78 2.78 0 0 0 31 79a3.1 3.1 0 0 0 .52.79 3.67 3.67 0 0 1-.34.88m-2-1a1.22 1.22 0 0 1-.94.56c-.37 0-.72-.47-.82-.6s-.34-.61-.65-.66a.43.43 0 0 0-.42.26 1.78 1.78 0 0 1-.07-.25.37.37 0 0 1 .24-.41c.42-.17 1 .32 1.07.39a1.06 1.06 0 0 0 1.4 0 1.87 1.87 0 0 0 .68-1.38l.27.08a2.89 2.89 0 0 1-.06.78 3.35 3.35 0 0 1-.7 1.28m2.61-3.4c0 .48-.57.86-1.26.86s-1.26-.38-1.26-.86.56-.86 1.26-.86 1.26.39 1.26.86M30 72.46a8.8 8.8 0 0 1-.25-4 4.88 4.88 0 0 1 .81-1.61 4.88 4.88 0 0 1 .81 1.61 8.84 8.84 0 0 1-.26 4C31 73 30.58 75 30.58 75s-.44-2-.58-2.54m-.87-2a8.91 8.91 0 0 0 .23 1 6.59 6.59 0 0 0-.66-.78 2.47 2.47 0 0 0-.67-.43s0-.37-.1-.69-.13-.56-.13-.56a1.67 1.67 0 0 1 .74.14 1.43 1.43 0 0 1 .54.36 7.16 7.16 0 0 0 .07 1m-3.41.71a1.49 1.49 0 0 1 1.81-.56 3.13 3.13 0 0 1 1.76 1.65 11.69 11.69 0 0 1 .61 1.7c.11.43.23 1 .23 1h-.27a6.43 6.43 0 0 0-.66-1.66c-.31-.48-.91-.89-1.46-.39a1.27 1.27 0 0 0-.24 1.5c.1.17.28.5.43.74s.43.86 0 1.27a.9.9 0 0 1-1.09.25.8.8 0 0 1-.44-.46s.54.33.87-.06c.14-.16.28-.55-.29-1.24-.18-.23-1-1.11-1.29-1.55a2.15 2.15 0 0 1 0-2.33m-11.3-8.44a3.1 3.1 0 0 0 .52-.79 2.75 2.75 0 0 0 .23-1.37h.42a2.75 2.75 0 0 0 .23 1.37 3.1 3.1 0 0 0 .52.79 3.84 3.84 0 0 1-.34.89 6.69 6.69 0 0 1-.62.87 6.69 6.69 0 0 1-.62-.87 3.84 3.84 0 0 1-.34-.89m-1.33.43c-.37 0-.72-.47-.82-.6s-.34-.61-.65-.66a.43.43 0 0 0-.42.27 1.65 1.65 0 0 1-.07-.26.37.37 0 0 1 .24-.41c.42-.16 1 .32 1.07.39a1.06 1.06 0 0 0 1.4 0 1.85 1.85 0 0 0 .68-1.37l.26.07a2.76 2.76 0 0 1 0 .79A3.28 3.28 0 0 1 14 62.5a1.22 1.22 0 0 1-.94.56m-2.55-9a1.51 1.51 0 0 1 1.81-.56 3.17 3.17 0 0 1 1.76 1.65 11.69 11.69 0 0 1 .61 1.74c.11.43.23 1 .23 1h-.27a6.43 6.43 0 0 0-.65-1.6c-.31-.48-.91-.88-1.46-.39a1.28 1.28 0 0 0-.24 1.5c.1.17.28.5.43.74s.43.86 0 1.27a.89.89 0 0 1-1.09.25.8.8 0 0 1-.44-.46s.54.33.87-.06c.14-.15.28-.54-.29-1.24-.18-.22-1-1.11-1.29-1.55a2.15 2.15 0 0 1 0-2.33M13.34 52a1.44 1.44 0 0 1 .53.36 7.36 7.36 0 0 0 .07 1c.07.45.22 1 .22 1a6.11 6.11 0 0 0-.65-.78 2.63 2.63 0 0 0-.66-.42s0-.38-.11-.69-.15-.59-.15-.59a1.62 1.62 0 0 1 .75.13m2 8c-.69 0-1.26-.38-1.26-.86s.57-.86 1.26-.86 1.26.39 1.26.86-.57.86-1.26.86m.59.48l.27-.07a1.82 1.82 0 0 0 .67 1.37 1.08 1.08 0 0 0 1.41 0c.09-.07.65-.55 1.07-.39a.37.37 0 0 1 .23.41 2.12 2.12 0 0 1-.06.26.45.45 0 0 0-.43-.27c-.3.05-.54.53-.64.66s-.46.6-.83.6a1.25 1.25 0 0 1-.94-.56 3.44 3.44 0 0 1-.68-1.27 3 3 0 0 1-.06-.79m.61-6.13a9.09 9.09 0 0 0 .23-1 7.36 7.36 0 0 0 .07-1 1.44 1.44 0 0 1 .55-.31 1.62 1.62 0 0 1 .75-.13s-.08.27-.15.59-.11.69-.11.69a2.63 2.63 0 0 0-.66.42 6.59 6.59 0 0 0-.66.78m.07.8a3.17 3.17 0 0 1 1.76-1.65 1.51 1.51 0 0 1 1.81.56 2.15 2.15 0 0 1 0 2.33c-.3.44-1.11 1.33-1.29 1.55-.57.7-.43 1.09-.3 1.24.33.39.88.06.88.06a.8.8 0 0 1-.45.46.88.88 0 0 1-1.05-.29c-.4-.41-.12-1 0-1.27s.34-.57.44-.74a1.28 1.28 0 0 0-.24-1.5c-.55-.49-1.15-.09-1.46.39a6.43 6.43 0 0 0-.67 1.71h-.28s.13-.59.24-1a11.69 11.69 0 0 1 .61-1.74m-2.08-3.79a4.88 4.88 0 0 1 .81-1.61 4.88 4.88 0 0 1 .81 1.61 8.89 8.89 0 0 1-.26 4c-.11.49-.55 2.55-.55 2.55s-.44-2.06-.55-2.55a8.89 8.89 0 0 1-.26-4m11.18-17.34a1.51 1.51 0 0 1 1.81-.56 3.16 3.16 0 0 1 1.76 1.66 11.55 11.55 0 0 1 .61 1.77c.11.43.23 1 .23 1h-.28a6.29 6.29 0 0 0-.66-1.65c-.31-.49-.91-.89-1.46-.39a1.26 1.26 0 0 0-.24 1.49c.1.17.28.51.43.74s.43.86 0 1.27a.88.88 0 0 1-1.09.25.8.8 0 0 1-.44-.46s.54.34.87-.06c.14-.15.28-.54-.29-1.23-.18-.23-1-1.12-1.29-1.56a2.15 2.15 0 0 1 0-2.33m2.8-2.06a1.43 1.43 0 0 1 .54.36 7.36 7.36 0 0 0 .07 1 8.47 8.47 0 0 0 .23 1 7.58 7.58 0 0 0-.66-.78 2.59 2.59 0 0 0-.67-.42s0-.38-.1-.69-.15-.59-.15-.59a1.58 1.58 0 0 1 .74.13m1.23-.63a4.88 4.88 0 0 1 .81-1.61 4.88 4.88 0 0 1 .81 1.61 8.84 8.84 0 0 1-.26 4c-.11.49-.55 2.55-.55 2.55s-.44-2.06-.56-2.55a8.8 8.8 0 0 1-.25-4m2.24 2a7.36 7.36 0 0 0 .07-1 1.44 1.44 0 0 1 .53-.36 1.62 1.62 0 0 1 .75-.13s-.08.27-.15.59-.11.69-.11.69a2.63 2.63 0 0 0-.66.42 7.58 7.58 0 0 0-.66.78 8.47 8.47 0 0 0 .23-1m-.78 7.91a3 3 0 0 1-.06-.79l.27-.07a1.82 1.82 0 0 0 .67 1.37 1.06 1.06 0 0 0 1.41 0c.09-.07.65-.55 1.06-.39a.36.36 0 0 1 .24.41 1.11 1.11 0 0 1-.06.26.43.43 0 0 0-.43-.26c-.31 0-.54.52-.64.65s-.46.6-.83.6a1.25 1.25 0 0 1-.94-.56 3.44 3.44 0 0 1-.69-1.27m-1.05.76a2.75 2.75 0 0 0 .23-1.37h.42A2.75 2.75 0 0 0 31 42a3.1 3.1 0 0 0 .52.79 3.84 3.84 0 0 1-.34.89 6.69 6.69 0 0 1-.62.87 6.69 6.69 0 0 1-.62-.87 3.84 3.84 0 0 1-.34-.89 3.1 3.1 0 0 0 .52-.79m-.82-2.74c0-.47.56-.86 1.26-.86s1.26.39 1.26.86-.57.87-1.26.87-1.26-.39-1.26-.87m.4 1.27l.27.07a3 3 0 0 1-.06.79 3.28 3.28 0 0 1-.7 1.27 1.22 1.22 0 0 1-.94.56c-.37 0-.72-.46-.82-.6s-.34-.61-.65-.65a.42.42 0 0 0-.42.26 1.65 1.65 0 0 1-.07-.26.37.37 0 0 1 .24-.41c.42-.16 1 .32 1.07.39a1 1 0 0 0 1.4 0 1.85 1.85 0 0 0 .68-1.37m5.7-6.35a2.15 2.15 0 0 1 0 2.33c-.3.44-1.11 1.33-1.3 1.56-.56.69-.42 1.08-.29 1.23.33.4.87.06.87.06a.76.76 0 0 1-.44.46.87.87 0 0 1-1.08-.25c-.4-.41-.12-1 0-1.27s.34-.57.44-.74a1.26 1.26 0 0 0-.2-1.61c-.55-.5-1.16-.1-1.46.39a6.5 6.5 0 0 0-.67 1.65h-.13L31 38s.13-.59.24-1a11.55 11.55 0 0 1 .61-1.73 3.16 3.16 0 0 1 1.76-1.66 1.51 1.51 0 0 1 1.81.56m9.11 25c0-.47.57-.86 1.26-.86s1.26.39 1.26.86-.57.86-1.26.86-1.26-.38-1.26-.86m-2.75 2.3c.42-.16 1 .32 1.07.39a1.06 1.06 0 0 0 1.4 0 1.85 1.85 0 0 0 .68-1.37l.26.07a2.76 2.76 0 0 1 0 .79 3.28 3.28 0 0 1-.7 1.27 1.22 1.22 0 0 1-.94.56c-.37 0-.72-.47-.82-.6s-.34-.61-.65-.66a.43.43 0 0 0-.42.27 1.65 1.65 0 0 1-.07-.26.37.37 0 0 1 .24-.41m2.74-6.29a11.69 11.69 0 0 1 .61 1.74c.11.43.23 1 .23 1h-.27a6.43 6.43 0 0 0-.66-1.66c-.31-.48-.91-.88-1.46-.39a1.28 1.28 0 0 0-.24 1.5c.1.17.28.5.43.74s.44.86 0 1.27a.89.89 0 0 1-1.09.25.8.8 0 0 1-.44-.46s.54.33.87-.06c.14-.15.28-.54-.29-1.24-.18-.22-1-1.11-1.29-1.55A2.15 2.15 0 0 1 41 54a1.51 1.51 0 0 1 1.81-.56 3.17 3.17 0 0 1 1.76 1.65m-.16-1.79c.07.45.22 1 .22 1a6.11 6.11 0 0 0-.65-.78 2.59 2.59 0 0 0-.67-.42s0-.38-.1-.69-.15-.59-.15-.59a1.58 1.58 0 0 1 .74.13 1.43 1.43 0 0 1 .54.36 7.36 7.36 0 0 0 .07 1m.62-2a4.88 4.88 0 0 1 .81-1.61 4.88 4.88 0 0 1 .81 1.61 8.89 8.89 0 0 1-.26 4c-.11.49-.55 2.55-.55 2.55s-.44-2.06-.56-2.55a8.85 8.85 0 0 1-.25-4m2.24 2a7.36 7.36 0 0 0 .07-1 1.44 1.44 0 0 1 .53-.36 1.62 1.62 0 0 1 .75-.13s-.08.27-.15.59-.11.69-.11.69a2.63 2.63 0 0 0-.66.42 6.59 6.59 0 0 0-.66.78 9.09 9.09 0 0 0 .23-1m5.93-27.48H8a2.94 2.94 0 0 0-2.94 2.94v45.83a11.78 11.78 0 0 0 11.79 11.78h8.25a5.64 5.64 0 0 1 2.93.79 5.72 5.72 0 0 1 1.57 1.37 1.19 1.19 0 0 0 1 .46 1.22 1.22 0 0 0 1-.46 5.43 5.43 0 0 1 1.57-1.37 5.58 5.58 0 0 1 2.93-.79h8.25a11.79 11.79 0 0 0 11.74-11.78V28.78a2.94 2.94 0 0 0-2.94-2.94m-22.57 24.3h3.09l-3.09 5.4-3.1-5.4zM57.94 9.23a.8.8 0 0 1 .57 0c.61.25.85 1.21.52 2.14a1.83 1.83 0 0 1-1.21 1.28l-2.54 5.58v.87a2.93 2.93 0 0 1-1.83 5.23H7.71a2.94 2.94 0 0 1-2.94-2.94 2.89 2.89 0 0 1 1.11-2.29v-.87l-2.54-5.56a1.84 1.84 0 0 1-1.22-1.28c-.32-.93-.12-1.89.53-2.14a.8.8 0 0 1 .57 0c-.07-5-.51-7-3.22-8C2.36-.25 4.47.12 5.72 3.11 6.09 2.36 6.21 2 7 1.62c.58 2.73-.16 4.84-1.9 7.08a9.07 9.07 0 0 1 6.46-2.48 1.5 1.5 0 0 1-.62 1.24 8.12 8.12 0 0 1 2.86 3.11 8.17 8.17 0 0 1-2.86 3.1 1.51 1.51 0 0 1 .62 1.25 9.08 9.08 0 0 1-6.46-2.49c.87 2.11 3.73 4.1 5 4.1 1 0 3.88-1.6 5.85-4.35a2 2 0 1 1 2 0c2 2.75 4.8 4.35 5.85 4.35 1.24 0 4.35-1.61 5-4.1a9.08 9.08 0 0 1-6.46 2.49 1.54 1.54 0 0 1 .62-1.25 8.17 8.17 0 0 1-2.96-3.1 8.12 8.12 0 0 1 2.86-3.11 1.53 1.53 0 0 1-.62-1.24 9.07 9.07 0 0 1 6.47 2.48 9.07 9.07 0 0 1-2.48-6.46 1.5 1.5 0 0 1 1.24.62A8.11 8.11 0 0 1 30.58 0a8.18 8.18 0 0 1 3.11 2.86 1.5 1.5 0 0 1 1.24-.62 9 9 0 0 1-2.49 6.46 9.09 9.09 0 0 1 6.47-2.48 1.53 1.53 0 0 1-.62 1.24 8.08 8.08 0 0 1 2.85 3.11 8.14 8.14 0 0 1-2.85 3.1 1.54 1.54 0 0 1 .62 1.25 9.1 9.1 0 0 1-6.47-2.49c.63 2.49 3.73 4.1 5 4.1 1 0 3.88-1.6 5.85-4.35a2 2 0 1 1 2 0c2 2.75 4.81 4.35 5.86 4.35 1.24 0 4.1-2 5-4.1a9.08 9.08 0 0 1-6.46 2.49 1.51 1.51 0 0 1 .62-1.25 8.09 8.09 0 0 1-2.86-3.1 8 8 0 0 1 2.86-3.11 1.5 1.5 0 0 1-.62-1.24 9.07 9.07 0 0 1 6.37 2.48c-1.74-2.24-2.48-4.35-1.86-7.08.74.37.87.74 1.24 1.49 1.24-3 3.36-3.36 5.72-1.87-2.71.94-3.15 3-3.22 8"/></svg>